<svg height="512pt" viewBox="-115 0 512 512" width="512pt" xmlns="http://www.w3.org/2000/svg"><path d="m243.546875 106.066406h-50.742187v-68.566406c0-20.679688-16.824219-37.5-37.5-37.5h-29.5625c-20.675782 0-37.5 16.820312-37.5 37.5v17.667969c0 4.144531 3.359374 7.5 7.5 7.5 4.144531 0 7.5-3.355469 7.5-7.5v-17.667969c0-12.40625 10.097656-22.5 22.5-22.5h29.5625c12.40625 0 22.5 10.09375 22.5 22.5v68.566406h-74.5625v-15.898437c0-4.140625-3.355469-7.5-7.5-7.5-4.140626 0-7.5 3.359375-7.5 7.5v15.898437h-50.742188c-20.679688 0-37.5 16.820313-37.5 37.5v170.917969c0 4.144531 3.355469 7.5 7.5 7.5s7.5-3.355469 7.5-7.5v-170.917969c0-12.40625 10.09375-22.5 22.5-22.5h206.050781c12.402344 0 22.5 10.09375 22.5 22.5v330.933594c0 12.40625-10.097656 22.5-22.5 22.5h-206.050781c-12.40625 0-22.5-10.09375-22.5-22.5v-125.246094c0-4.140625-3.355469-7.5-7.5-7.5s-7.5 3.359375-7.5 7.5v125.246094c0 20.679688 16.820312 37.5 37.5 37.5h206.050781c20.675781 0 37.5-16.820312 37.5-37.5v-330.933594c-.003906-20.675781-16.824219-37.5-37.503906-37.5zm0 0"/><path d="m212.617188 206.667969c4.144531 0 7.5-3.355469 7.5-7.5v-27c0-9.648438-7.847657-17.5-17.5-17.5h-124.1875c-9.648438 0-17.5 7.851562-17.5 17.5v149.816406c0 9.652344 7.851562 17.5 17.5 17.5h124.1875c9.648437 0 17.5-7.847656 17.5-17.5v-87.816406c0-4.140625-3.355469-7.5-7.5-7.5-4.140626 0-7.5 3.359375-7.5 7.5v87.816406c0 1.378906-1.121094 2.5-2.5 2.5h-5.28125l-5.492188-11.976563c-2.9375-14.308593-15.480469-24.582031-30.21875-24.582031h-4.71875c-3.191406 0-6.039062 2.023438-7.085938 5.042969-1.046874 3.027344-3.917968 5.0625-7.144531 5.0625-3.222656 0-6.09375-2.03125-7.140625-5.058594-1.046875-3.023437-3.890625-5.046875-7.089844-5.046875h-4.714843c-14.738281 0-27.285157 10.273438-30.21875 24.582031l-5.492188 11.976563h-9.59375c-1.378906 0-2.5-1.121094-2.5-2.5v-149.816406c0-1.378907 1.121094-2.5 2.5-2.5h124.1875c1.378907 0 2.5 1.121093 2.5 2.5v27c.003907 4.144531 3.363281 7.5 7.503907 7.5zm-105.085938 111.253906c.273438-.59375.464844-1.21875.574219-1.863281 1.300781-7.609375 7.871093-13.132813 15.628906-13.132813h.121094c4.105469 6.207031 11.128906 10.105469 18.824219 10.105469 7.691406 0 14.714843-3.902344 18.824218-10.105469h.121094c7.757812 0 14.328125 5.523438 15.625 13.132813.109375.644531.304688 1.269531.574219 1.863281l3.011719 6.5625h-76.3125zm0 0"/><path d="m68.429688 378.582031h144.1875c4.144531 0 7.5-3.355469 7.5-7.5 0-4.140625-3.355469-7.5-7.5-7.5h-144.1875c-4.144532 0-7.5 3.359375-7.5 7.5 0 4.144531 3.355468 7.5 7.5 7.5zm0 0"/><path d="m68.429688 408.4375h144.1875c4.144531 0 7.5-3.359375 7.5-7.5s-3.355469-7.5-7.5-7.5h-144.1875c-4.144532 0-7.5 3.359375-7.5 7.5s3.355468 7.5 7.5 7.5zm0 0"/><path d="m68.429688 438.289062h94.1875c4.144531 0 7.5-3.355468 7.5-7.5 0-4.140624-3.355469-7.5-7.5-7.5h-94.1875c-4.144532 0-7.5 3.359376-7.5 7.5 0 4.144532 3.355468 7.5 7.5 7.5zm0 0"/><path d="m166.464844 57.621094c0-14.304688-11.640625-25.9375-25.941406-25.9375-14.300782 0-25.9375 11.632812-25.9375 25.9375 0 14.304687 11.636718 25.9375 25.9375 25.9375 14.304687 0 25.941406-11.636719 25.941406-25.9375zm-36.878906 0c0-6.03125 4.90625-10.9375 10.9375-10.9375s10.941406 4.90625 10.941406 10.9375-4.910156 10.9375-10.941406 10.9375-10.9375-4.90625-10.9375-10.9375zm0 0"/><path d="m156.414062 179.316406c-6.875-1.253906-14.144531 1.167969-21.835937 3.734375-6.304687 2.105469-12.824219 4.277344-17.960937 3.851563-4.195313-.347656-8.289063 1.460937-11.523438 5.097656-7.847656 8.820312-11.007812 28.699219-8.597656 40.578125 2.699218 13.28125 8.886718 22.390625 11.15625 25.386719 5.914062 13.980468 18.527344 29.796875 35.410156 29.796875 10.988281 0 26.011719-7.753907 35.289062-29.503907.019532-.042968.039063-.09375.058594-.136718 2.425782-5.605469 9.121094-24.832032 8.109375-33.917969-2.800781-25.175781-14.058593-41.957031-30.105469-44.886719zm-40.105468 22.597656c7.902344.398438 15.914062-2.265624 23.015625-4.632812 5.558593-1.855469 11.308593-3.769531 14.394531-3.210938 8.902344 1.625 15.925781 14.105469 17.894531 31.792969.03125.289063.035157.582031.027344.867188-1.386719-1.085938-2.972656-1.890625-4.664063-2.378907-6.015624-1.742187-11.035156-.160156-15.460937 1.238282-4.847656 1.53125-9.859375 3.113281-18.324219 1.242187-8.660156-1.910156-14.359375.898438-17.613281 3.589844-1.273437 1.050781-2.363281 2.234375-3.296875 3.5-.410156-1.367187-.773438-2.8125-1.082031-4.328125-2.027344-9.980469 2.113281-24.695312 5.109375-27.679688zm26.753906 70.847657c-8.753906 0-17.039062-10.183594-21.367188-20.109375.140626-3.648438 1.207032-8.828125 3.449219-10.675782.367188-.304687 1.488281-1.230468 4.808594-.496093 12.378906 2.734375 20.292969.238281 26.074219-1.585938 3.386718-1.070312 4.972656-1.496093 6.375-1.230469.011718.019532.027344.039063.039062.0625.007813.007813.011719.015626.015625.027344.007813.011719.015625.023438.023438.035156.003906.011719.011719.023438.015625.03125.011718.015626.019531.03125.027344.050782.003906 0 .003906.003906.003906.007812.609375 1.097656 1.949218 4.695313 1.511718 14.65625-4.464843 9.773438-12.476562 19.226563-20.976562 19.226563zm0 0"/></svg>